<svg width="1136" height="683" viewBox="0 0 1136 683" fill="none" xmlns="http://www.w3.org/2000/svg">
<path d="M60.5314 84.85C-14.9426 142.525 -8.65367 226.505 19.3619 284.756C52.2365 353.108 84.4944 456.015 74.4646 536.248C69.8157 573.412 264.868 690.375 380.827 682.097C542.116 670.581 623.615 651.985 784.952 650.258C946.289 648.531 926.663 641.201 1054.14 602.493C1146.52 574.441 1138.08 494.472 1133.45 439.418C1128.82 384.364 1076.29 288.313 1075.58 189.599C1074.83 83.9558 868.782 6.43191 749.61 6.03223C545.654 5.35481 572.124 52.6726 447.558 56.7506C370.241 59.2842 154.154 13.3145 60.5314 84.85Z" fill="black"/>
<path d="M60.5314 84.85C-14.9426 142.525 -8.65367 226.505 19.3619 284.756C52.2365 353.108 84.4944 456.015 74.4646 536.248C69.8157 573.412 264.868 690.375 380.827 682.097C542.116 670.581 623.615 651.985 784.952 650.258C946.289 648.531 926.663 641.201 1054.14 602.493C1146.52 574.441 1138.08 494.472 1133.45 439.418C1128.82 384.364 1076.29 288.313 1075.58 189.599C1074.83 83.9558 868.782 6.43191 749.61 6.03223C545.654 5.35481 572.124 52.6726 447.558 56.7506C370.241 59.2842 154.154 13.3145 60.5314 84.85Z" fill="url(#paint0_linear)"/>
<path d="M1010.01 650.075C1097.73 603.076 1111.03 519.55 1096.97 458.548C1080.47 386.966 1072.6 281.437 1101.1 203.724C1114.3 167.725 1121.9 72.3449 1007.32 56.6694C892.738 40.9939 753.954 42.2065 594.671 22.9678C435.387 3.72906 286.208 -10.2258 151.68 11.35C54.1881 26.9849 43.9347 106.832 35.7076 161.656C27.4805 216.479 56.9192 317.882 34.691 415.194C10.9042 519.333 49.4104 603.232 166.684 619.083C367.388 646.221 498.717 615.378 622.341 627.524C699.068 635.064 901.209 708.374 1010.01 650.075Z" fill="url(#paint1_linear)"/>
<path d="M93.589 55.4839C11.0467 112.279 17.932 172.339 39.2249 237.032C64.2113 312.951 73.6582 432.806 54.1747 518.5C45.1479 558.197 48.7397 661.435 165.627 670.242C282.515 679.048 428.4 652.629 590.591 662.113C752.782 671.597 870.794 676.196 1003.32 643.484C1099.37 619.774 1106.62 544.581 1108.43 484.968C1110.25 425.355 1069.93 318.661 1080.8 212.306C1092.43 98.4932 1031.41 19.5806 911.801 10.7742C707.099 -4.29841 627.796 42.2335 502.248 37.8709C424.321 35.1613 195.981 -14.9678 93.589 55.4839Z" fill="url(#paint2_linear)"/>
<defs>
<linearGradient id="paint0_linear" x1="0.000395807" y1="344.27" x2="1136" y2="344.27" gradientUnits="userSpaceOnUse">
<stop stop-color="#4492C7"/>
<stop offset="0.6279" stop-color="#988285"/>
<stop offset="1" stop-color="#C67961"/>
</linearGradient>
<linearGradient id="paint1_linear" x1="27.9928" y1="336.438" x2="1108.33" y2="336.438" gradientUnits="userSpaceOnUse">
<stop stop-color="#4C9BBC"/>
<stop offset="0.5621" stop-color="#A28F8C"/>
<stop offset="1" stop-color="#E18769"/>
</linearGradient>
<linearGradient id="paint2_linear" x1="25.3042" y1="339.913" x2="1108.49" y2="339.913" gradientUnits="userSpaceOnUse">
<stop stop-color="#29B0C9"/>
<stop offset="0.0298" stop-color="#2EAFC6"/>
<stop offset="0.7024" stop-color="#A0A27E"/>
<stop offset="1" stop-color="#CE9C62"/>
</linearGradient>
</defs>
</svg>
