<svg width="156" height="213" viewBox="0 0 156 213" fill="none" xmlns="http://www.w3.org/2000/svg">
<g filter="url(#filter0_d)">
<path d="M91.1653 206.323C96.7794 206.323 101.331 201.773 101.331 196.161C101.331 190.549 96.7794 186 91.1653 186C85.5512 186 81 190.549 81 196.161C81 201.773 85.5512 206.323 91.1653 206.323Z" fill="url(#paint0_radial)"/>
</g>
<path d="M107.893 44.9516C113.881 44.9516 118.736 40.099 118.736 34.1129C118.736 28.1268 113.881 23.2742 107.893 23.2742C101.904 23.2742 97.0498 28.1268 97.0498 34.1129C97.0498 40.099 101.904 44.9516 107.893 44.9516Z" fill="url(#paint1_radial)" stroke="white" stroke-miterlimit="10"/>
<path d="M116.181 59.7058C119.089 59.7058 121.446 57.3492 121.446 54.4423C121.446 51.5353 119.089 49.1787 116.181 49.1787C113.273 49.1787 110.915 51.5353 110.915 54.4423C110.915 57.3492 113.273 59.7058 116.181 59.7058Z" fill="url(#paint2_radial)" stroke="white" stroke-miterlimit="10"/>
<path d="M133.035 197.981C133.035 197.981 126.725 190.922 118.979 176.75C111.233 162.579 127.2 134.737 124.367 125.327C121.534 115.918 118.925 116.372 116.933 105.493C114.906 94.4235 124.15 83.6729 123.296 77.9893C122.442 72.3058 125.709 58.0664 128.955 53.4329C132.201 48.7993 130.29 26.8374 130.29 26.8374C130.29 26.8374 138.233 56.041 133.909 64.6035C129.592 73.1593 128.311 74.3719 126.759 83.219C125.214 92.0661 135.962 104.063 135.278 118.594C134.593 133.124 125.831 132 126.217 142.602C126.603 153.203 138.687 161.529 136.62 173.329C134.559 185.137 133.035 197.981 133.035 197.981Z" fill="url(#paint3_linear)"/>
<path d="M127.681 186.79C127.681 186.79 118.214 193.645 109.16 178.403C100.106 163.161 104.165 160.093 104.843 146.382C105.521 132.671 103.488 141.477 94.6777 126.574C85.8678 111.671 94.6777 102.187 88.5785 94.0578C82.4794 85.9287 80.4463 90.6707 75.7025 81.1868C70.9587 71.7029 77.0579 58.832 75.7025 52.7352C74.3471 46.6384 66.8926 37.1545 66.8926 37.1545C66.8926 37.1545 79.9448 43.7865 82.4794 47.9052C85.8678 53.4126 81.8017 56.4407 82.4794 61.5416C83.1571 66.6426 89.2562 64.9287 91.967 73.0578C94.6777 81.1868 94 93.3803 96.0331 97.4448C98.0662 101.509 106.483 113.913 110.407 120.24C114.331 126.574 108.74 142.696 111.532 147.167C114.324 151.638 113.165 148.624 120.186 159.28C127.207 169.936 127.681 186.79 127.681 186.79Z" fill="url(#paint4_linear)"/>
<path d="M141.065 190.692C141.065 190.692 133.645 199.403 115.347 189.242C97.0495 179.081 95.0165 145.887 85.5288 137.758C76.0412 129.629 54.3552 122.855 50.2891 109.306C46.223 95.7581 50.2891 71.371 45.5453 65.9516C40.8015 60.5323 34.7023 49.0161 35.38 42.242C36.0577 35.4678 35.38 0.241943 35.38 0.241943C35.38 0.241943 50.9668 28.6936 51.6445 40.2097C52.3222 51.7258 52.9999 61.2097 57.066 71.371C61.1321 81.5323 71.9751 82.8871 80.785 98.4678C89.595 114.048 86.8842 124.21 94.3388 135.048C101.793 145.887 123.479 149.274 128.901 162.823C134.322 176.371 141.065 190.692 141.065 190.692Z" fill="url(#paint5_linear)"/>
<path d="M137.169 201.131C137.169 201.131 124.875 198.997 105.494 191.105C86.1049 183.213 81.4695 144.878 71.0738 137.948C60.6781 131.018 58.2317 133.362 47.592 124.413C36.7625 115.308 38.2805 98.2442 32.92 93.4345C27.5595 88.6248 19.9355 72.5971 19.7932 65.7958C19.6509 58.9877 0.431641 39.3629 0.431641 39.3629C0.431641 39.3629 31.7815 61.501 33.8417 72.8545C35.8951 84.2081 35.4682 86.3081 40.727 95.9071C45.9859 105.506 66.8993 109.117 77.5186 123.525C88.138 137.934 77.8642 143.272 86.5657 153.135C95.2672 162.999 114.737 162.125 121.751 174.921C128.765 187.718 137.169 201.131 137.169 201.131Z" fill="url(#paint6_linear)"/>
<path d="M139.677 201.815C139.677 201.815 123.941 193.09 131.626 171.48C139.304 149.87 122.45 149.694 125.384 137.873C128.318 126.052 128.061 117.883 125.621 110.648C123.188 103.413 118.207 98.6235 116.472 84.1403C115.293 74.2771 118.804 72.5767 108.449 64.529C102.058 59.5567 85.7461 57.5719 85.7461 57.5719C85.7461 57.5719 90.9982 65.6671 96.0605 70.9441C105.053 80.3129 105.067 74.6022 112.013 88.0287C117.692 99.0029 109.831 107.234 110.055 119.935C110.278 132.644 119.671 143.394 119 153.637C118.329 163.879 119.576 178.071 121.169 186.742C122.748 195.42 139.677 201.815 139.677 201.815Z" fill="url(#paint7_linear)"/>
<path d="M154.294 180.429C154.294 180.429 151.339 184.188 145.267 185.056C139.195 185.923 137.134 186.261 134.735 182.834C132.336 179.406 137.48 174.942 140.909 174.942C144.338 174.942 151.203 172.198 154.294 175.626C157.384 179.054 154.294 180.429 154.294 180.429Z" fill="url(#paint8_linear)"/>
<path opacity="0.5" d="M148.865 175.68C144.684 175.971 140.218 176.053 140.909 177.726C141.6 179.399 146.744 180.429 148.804 179.744C150.864 179.06 152.924 176.655 152.924 175.626C152.924 174.596 148.865 175.68 148.865 175.68Z" fill="#8B8B94"/>
<path d="M147.537 197.71C147.537 197.71 141.702 205.134 129.714 206.841C117.719 208.548 113.653 209.226 108.909 202.452C104.165 195.677 114.33 186.871 121.107 186.871C127.884 186.871 141.438 181.452 147.537 188.226C153.636 195 147.537 197.71 147.537 197.71Z" fill="url(#paint9_linear)"/>
<path opacity="0.6" d="M134.119 186.295C127.267 186.871 119.955 187.027 121.08 190.333C122.205 193.638 130.642 195.671 134.017 194.316C137.392 192.961 140.767 188.219 140.767 186.187C140.767 184.154 134.119 186.295 134.119 186.295Z" fill="#8B8B94"/>
<defs>
<filter id="filter0_d" x="77" y="184" width="28.3306" height="28.3226" filterUnits="userSpaceOnUse" color-interpolation-filters="sRGB">
<feFlood flood-opacity="0" result="BackgroundImageFix"/>
<feColorMatrix in="SourceAlpha" type="matrix" values="0 0 0 0 0 0 0 0 0 0 0 0 0 0 0 0 0 0 127 0" result="hardAlpha"/>
<feOffset dy="2"/>
<feGaussianBlur stdDeviation="2"/>
<feComposite in2="hardAlpha" operator="out"/>
<feColorMatrix type="matrix" values="0 0 0 0 0 0 0 0 0 0 0 0 0 0 0 0 0 0 0.25 0"/>
<feBlend mode="normal" in2="BackgroundImageFix" result="effect1_dropShadow"/>
<feBlend mode="normal" in="SourceGraphic" in2="effect1_dropShadow" result="shape"/>
</filter>
<radialGradient id="paint0_radial" cx="0" cy="0" r="1" gradientUnits="userSpaceOnUse" gradientTransform="translate(94.3837 189.726) scale(12.3407 12.3359)">
<stop stop-color="white"/>
<stop offset="0.4487" stop-color="#D7FFF8"/>
<stop offset="1" stop-color="#AAFFEF"/>
</radialGradient>
<radialGradient id="paint1_radial" cx="0" cy="0" r="1" gradientUnits="userSpaceOnUse" gradientTransform="translate(111.326 27.2486) scale(13.1635 13.1583)">
<stop stop-color="white"/>
<stop offset="0.4487" stop-color="#D7FFF8"/>
<stop offset="1" stop-color="#AAFFEF"/>
</radialGradient>
<radialGradient id="paint2_radial" cx="0" cy="0" r="1" gradientUnits="userSpaceOnUse" gradientTransform="translate(117.847 51.1105) scale(6.39344 6.39083)">
<stop stop-color="white"/>
<stop offset="0.4487" stop-color="#D7FFF8"/>
<stop offset="1" stop-color="#AAFFEF"/>
</radialGradient>
<linearGradient id="paint3_linear" x1="93.6614" y1="90.634" x2="169.575" y2="134.151" gradientUnits="userSpaceOnUse">
<stop stop-color="#29B043"/>
<stop offset="0.2092" stop-color="#36A94D"/>
<stop offset="1" stop-color="#63906F"/>
</linearGradient>
<linearGradient id="paint4_linear" x1="66.892" y1="112.745" x2="127.68" y2="112.745" gradientUnits="userSpaceOnUse">
<stop stop-color="#29B043"/>
<stop offset="0.2574" stop-color="#37A254"/>
<stop offset="1" stop-color="#5C7C81"/>
</linearGradient>
<linearGradient id="paint5_linear" x1="35.3276" y1="97.2047" x2="141.064" y2="97.2047" gradientUnits="userSpaceOnUse">
<stop stop-color="#29B043"/>
<stop offset="0.3194" stop-color="#40A94D"/>
<stop offset="1" stop-color="#6D9C62"/>
</linearGradient>
<linearGradient id="paint6_linear" x1="11.0959" y1="127.272" x2="126.566" y2="113.298" gradientUnits="userSpaceOnUse">
<stop stop-color="#29B043"/>
<stop offset="0.2092" stop-color="#36A94D"/>
<stop offset="1" stop-color="#63906F"/>
</linearGradient>
<linearGradient id="paint7_linear" x1="140.182" y1="83.0203" x2="87.8473" y2="172.191" gradientUnits="userSpaceOnUse">
<stop stop-color="#29B043"/>
<stop offset="0.2574" stop-color="#37A254"/>
<stop offset="1" stop-color="#5C7C81"/>
</linearGradient>
<linearGradient id="paint8_linear" x1="134.119" y1="179.768" x2="155.669" y2="179.768" gradientUnits="userSpaceOnUse">
<stop stop-color="#333333"/>
<stop offset="0.3948" stop-color="#535353"/>
<stop offset="1" stop-color="#808080"/>
</linearGradient>
<linearGradient id="paint9_linear" x1="107.689" y1="196.404" x2="150.247" y2="196.404" gradientUnits="userSpaceOnUse">
<stop stop-color="#333333"/>
<stop offset="0.3948" stop-color="#535353"/>
<stop offset="1" stop-color="#808080"/>
</linearGradient>
</defs>
</svg>
