<svg width="122" height="129" viewBox="0 0 122 129" fill="none" xmlns="http://www.w3.org/2000/svg">
<path d="M64.5839 70.504C64.5839 70.504 81.0748 61.9742 80.7207 40.0799C80.3665 18.1856 63.3444 2.50891 63.3444 2.50891L58.6849 11.8353L54.0807 2C54.0807 2 38.5417 28.4966 40.4343 41.7173C44.4629 69.8292 59.2715 73.646 59.2715 73.646L64.5839 70.504Z" fill="black"/>
<path d="M67.0187 65.2821C67.0187 65.2821 66.7531 46.7179 46.9862 37.2698C27.2193 27.8217 5.59308 36.0418 5.59308 36.0418L11.8574 44.3725L1 44.0959C1 44.0959 17.7786 69.8181 30.4622 74.0332C57.423 82.9834 67.4504 71.4444 67.4504 71.4444L67.0187 65.2821Z" fill="black"/>
<path d="M65.1381 79.4432C65.1381 79.4432 81.4962 88.2275 99.3705 75.5489C117.245 62.8704 120.554 39.9804 120.554 39.9804L110.228 41.4075L115.74 32.048C115.74 32.048 85.0932 34.2164 75.254 43.244C54.325 62.45 59.5489 76.8212 59.5489 76.8212L65.1381 79.4432Z" fill="black"/>
<path d="M60.3785 63.1579C60.3785 63.1579 43.6331 55.137 26.3675 68.6122C9.10188 82.0983 6.83301 105.11 6.83301 105.11L17.0928 103.218L12.0127 112.821C12.0127 112.821 42.5263 109.259 51.9449 99.7775C71.9663 79.6312 66.1005 65.5144 66.1005 65.5144L60.3785 63.1579Z" fill="black"/>
<path d="M60.4329 69.9289C60.4329 69.9289 56.6367 88.0948 73.8469 101.647C91.0682 115.2 113.967 111.903 113.967 111.903L109.684 102.4L120.221 105.044C120.221 105.044 109.474 76.2682 98.0298 69.3868C73.6809 54.7611 61.3626 63.8219 61.3626 63.8219L60.4329 69.9289Z" fill="black"/>
<path d="M59.615 51.597C59.615 51.597 50.4178 60.7906 43.5226 83.0058C37.0259 103.926 56.7928 127.325 56.7928 127.325L61.5519 118.054L66.0564 127.934C66.0564 127.934 85.6684 102.92 78.7732 80.7046C70.3728 53.6327 62.6808 50.0592 62.6808 50.0592L59.615 51.597Z" fill="black"/>
<path d="M60.3913 97.388C60.3913 97.388 61.9186 72.8717 66.5228 65.2158C71.1159 57.56 69.5885 55.5465 66.5228 50.4242C63.457 45.3019 61.155 28.4414 61.155 28.4414C61.155 28.4414 62.8373 44.9479 60.0814 49.34C57.3255 53.7211 55.2559 61.3105 55.2559 61.3105C55.2559 61.3105 55.3887 56.2656 58.2774 68.0259C61.155 79.7752 60.3913 97.388 60.3913 97.388Z" fill="black"/>
<path d="M74.0035 46.1645C74.0035 46.1645 68.8128 52.9574 70.3401 56.022C71.8675 59.0865 77.999 61.3877 77.999 61.3877C77.999 61.3877 71.4469 62.9476 68.0381 65.2156C65.736 66.7423 60.3792 75.1726 60.3792 75.1726C60.3792 75.1726 59.6155 68.2801 56.5498 63.6778C53.6943 59.4073 46.29 61.0336 46.29 61.0336C46.29 61.0336 51.9567 59.0865 54.2477 56.022C56.5498 52.9574 56.8597 43.6753 56.8597 43.6753C56.8597 43.6753 60.6116 49.9261 63.4449 50.6562C67.1637 51.6188 74.0035 46.1645 74.0035 46.1645Z" fill="black"/>
<path d="M55.2552 57.3164C53.9714 59.1972 54.3145 61.8745 55.6647 63.711C57.015 65.5475 59.2064 66.6096 61.431 67.0964C64.6739 67.8155 68.5586 67.1628 70.429 64.4191C71.4251 62.9587 71.7018 61.0669 71.3587 59.33C71.0156 57.593 70.1081 55.9999 68.9238 54.6834C67.3633 52.9464 65.3047 51.652 63.069 50.9993C61.7962 50.6231 60.4017 50.4572 59.1621 50.9218C57.8008 51.4307 56.8047 52.6256 55.9857 53.8204C55.3327 54.7719 54.7351 55.7786 54.5137 56.9071C54.2924 58.0356 54.5248 59.3078 55.3438 60.1044" fill="black"/>
<path d="M67.3727 62.6049C70.7373 56.4316 60.6325 48.8754 58.1313 56.3873C55.63 63.8993 65.3474 66.3222 67.3727 62.6049Z" fill="black"/>
<path d="M64.5839 70.504C64.5839 70.504 81.0748 61.9742 80.7207 40.0799C80.3665 18.1856 63.3444 2.50891 63.3444 2.50891L58.6849 11.8353L54.0807 2C54.0807 2 38.5417 28.4966 40.4343 41.7173C44.4629 69.8292 59.2715 73.646 59.2715 73.646L64.5839 70.504Z" fill="url(#paint0_radial)" stroke="#C46345" stroke-miterlimit="10"/>
<path d="M67.0187 65.282C67.0187 65.282 66.7531 46.7178 46.9862 37.2697C27.2193 27.8216 5.59308 36.0417 5.59308 36.0417L11.8574 44.3723L1 44.0957C1 44.0957 17.7786 69.818 30.4622 74.0331C57.423 82.9833 67.4504 71.4443 67.4504 71.4443L67.0187 65.282Z" fill="url(#paint1_radial)" stroke="#C46345" stroke-miterlimit="10"/>
<path d="M65.1371 79.4432C65.1371 79.4432 81.4952 88.2275 99.3695 75.5489C117.244 62.8704 120.553 39.9804 120.553 39.9804L110.227 41.4075L115.739 32.048C115.739 32.048 85.0922 34.2164 75.253 43.244C54.324 62.45 59.548 76.8212 59.548 76.8212L65.1371 79.4432Z" fill="url(#paint2_radial)" stroke="#C46345" stroke-miterlimit="10"/>
<path d="M60.3775 63.1579C60.3775 63.1579 43.6321 55.137 26.3665 68.6122C9.1009 82.0983 6.83203 105.11 6.83203 105.11L17.0918 103.218L12.0117 112.821C12.0117 112.821 42.5253 109.259 51.9439 99.7775C71.9654 79.6312 66.0995 65.5144 66.0995 65.5144L60.3775 63.1579Z" fill="url(#paint3_radial)" stroke="#C46345" stroke-miterlimit="10"/>
<path d="M60.4329 69.9289C60.4329 69.9289 56.6367 88.0948 73.8469 101.647C91.0682 115.2 113.967 111.903 113.967 111.903L109.684 102.4L120.221 105.044C120.221 105.044 109.474 76.2682 98.0298 69.3868C73.6809 54.7611 61.3626 63.8219 61.3626 63.8219L60.4329 69.9289Z" fill="url(#paint4_radial)" stroke="#C46345" stroke-miterlimit="10"/>
<path d="M59.615 51.597C59.615 51.597 50.4178 60.7906 43.5226 83.0058C37.0259 103.926 56.7928 127.325 56.7928 127.325L61.5519 118.054L66.0564 127.934C66.0564 127.934 85.6684 102.92 78.7732 80.7046C70.3728 53.6327 62.6808 50.0592 62.6808 50.0592L59.615 51.597Z" fill="url(#paint5_radial)" stroke="#C46345" stroke-miterlimit="10"/>
<path d="M60.3893 97.388C60.3893 97.388 61.9167 72.8717 66.5208 65.2158C71.1139 57.56 69.5866 55.5465 66.5208 50.4242C63.4551 45.3019 61.153 28.4414 61.153 28.4414C61.153 28.4414 62.8353 44.9479 60.0794 49.34C57.3236 53.7211 55.2539 61.3105 55.2539 61.3105C55.2539 61.3105 55.3867 56.2656 58.2754 68.0259C61.153 79.7752 60.3893 97.388 60.3893 97.388Z" fill="#E57C5C"/>
<path d="M74.0035 46.1645C74.0035 46.1645 68.8128 52.9574 70.3401 56.022C71.8675 59.0865 77.999 61.3877 77.999 61.3877C77.999 61.3877 71.4469 62.9476 68.0381 65.2156C65.736 66.7423 60.3792 75.1726 60.3792 75.1726C60.3792 75.1726 59.6155 68.2801 56.5498 63.6778C53.6943 59.4073 46.29 61.0336 46.29 61.0336C46.29 61.0336 51.9567 59.0865 54.2477 56.022C56.5498 52.9574 56.8597 43.6753 56.8597 43.6753C56.8597 43.6753 60.6116 49.9261 63.4449 50.6562C67.1637 51.6188 74.0035 46.1645 74.0035 46.1645Z" fill="url(#paint6_radial)" stroke="#004507" stroke-miterlimit="10"/>
<path d="M55.2533 57.3164C53.9694 59.1972 54.3125 61.8745 55.6628 63.711C57.013 65.5475 59.2045 66.6096 61.4291 67.0964C64.6719 67.8155 68.5566 67.1628 70.4271 64.4191C71.4232 62.9587 71.6999 61.0669 71.3568 59.33C71.0137 57.593 70.1061 55.9999 68.9219 54.6834C67.3613 52.9464 65.3027 51.652 63.0671 50.9993C61.7943 50.6231 60.3998 50.4572 59.1602 50.9218C57.7988 51.4307 56.8028 52.6256 55.9838 53.8204C55.3308 54.7719 54.7331 55.7786 54.5118 56.9071C54.2904 58.0356 54.5228 59.3078 55.3418 60.1044" fill="#CE5F49"/>
<path d="M67.3718 62.605C70.7363 56.4317 60.6316 48.8755 58.1303 56.3874C55.629 63.8994 65.3464 66.3223 67.3718 62.605Z" fill="url(#paint7_radial)" stroke="#C46345" stroke-miterlimit="10"/>
<defs>
<radialGradient id="paint0_radial" cx="0" cy="0" r="1" gradientUnits="userSpaceOnUse" gradientTransform="translate(59.6973 67.6993) rotate(172.886) scale(32.873 39.8643)">
<stop offset="0.3312" stop-color="#FFEB73"/>
<stop offset="0.7114" stop-color="#F0A965"/>
<stop offset="1" stop-color="#E57C5C"/>
</radialGradient>
<radialGradient id="paint1_radial" cx="0" cy="0" r="1" gradientUnits="userSpaceOnUse" gradientTransform="translate(62.3379 68.3878) rotate(109.41) scale(32.8612 39.8795)">
<stop offset="0.3312" stop-color="#FFEB73"/>
<stop offset="0.7114" stop-color="#F0A965"/>
<stop offset="1" stop-color="#E57C5C"/>
</radialGradient>
<radialGradient id="paint2_radial" cx="0" cy="0" r="1" gradientUnits="userSpaceOnUse" gradientTransform="translate(64.7426 73.7779) rotate(-131.541) scale(32.8653 39.8751)">
<stop offset="0.3312" stop-color="#FFEB73"/>
<stop offset="0.7114" stop-color="#F0A965"/>
<stop offset="1" stop-color="#E57C5C"/>
</radialGradient>
<radialGradient id="paint3_radial" cx="0" cy="0" r="1" gradientUnits="userSpaceOnUse" gradientTransform="translate(61.1398 68.7085) rotate(45.8273) scale(32.8672 39.873)">
<stop offset="0.3312" stop-color="#FFEB73"/>
<stop offset="0.7114" stop-color="#F0A965"/>
<stop offset="1" stop-color="#E57C5C"/>
</radialGradient>
<radialGradient id="paint4_radial" cx="0" cy="0" r="1" gradientUnits="userSpaceOnUse" gradientTransform="translate(65.6963 67.8569) rotate(-57.951) scale(32.8641 39.8768)">
<stop offset="0.3312" stop-color="#FFEB73"/>
<stop offset="0.7114" stop-color="#F0A965"/>
<stop offset="1" stop-color="#E57C5C"/>
</radialGradient>
<radialGradient id="paint5_radial" cx="0" cy="0" r="1" gradientUnits="userSpaceOnUse" gradientTransform="translate(62.3656 56.5844) rotate(-6.53757) scale(31.3385 38.0048)">
<stop offset="0.3312" stop-color="#FFEB73"/>
<stop offset="0.7114" stop-color="#F0A965"/>
<stop offset="1" stop-color="#E57C5C"/>
</radialGradient>
<radialGradient id="paint6_radial" cx="0" cy="0" r="1" gradientUnits="userSpaceOnUse" gradientTransform="translate(62.1534 59.4285) rotate(180) scale(15.8064 15.8002)">
<stop offset="0.3312" stop-color="#289E49"/>
<stop offset="0.6817" stop-color="#5FB444"/>
<stop offset="1" stop-color="#8CC63F"/>
</radialGradient>
<radialGradient id="paint7_radial" cx="0" cy="0" r="1" gradientUnits="userSpaceOnUse" gradientTransform="translate(63.096 63.417) rotate(-6.53758) scale(8.1592 9.89485)">
<stop offset="0.3312" stop-color="#FFEB73"/>
<stop offset="0.7114" stop-color="#F0A965"/>
<stop offset="1" stop-color="#E57C5C"/>
</radialGradient>
</defs>
</svg>
